<svg xmlns="http://www.w3.org/2000/svg" width="95.0" height="41.0" viewBox="0.0 0.0 95.0 41.0" fill="none">
<path d="M33.0303 19.8861C35.6341 17.1626 36.5942 13.4219 36.0084 9.74683C35.4063 6.00613 32.9164 2.85607 29.4664 1.23182C26.0653 -0.392425 20.8252 -0.310395 17.7983 1.28104C14.7714 2.79045 12.4117 6.59677 11.9398 7.22022C11.7445 7.49913 11.8259 7.95852 12.1351 8.22102C12.6396 8.64759 15.6502 11.3383 16.6103 12.0437C17.1148 12.3883 17.5216 12.3883 17.9773 11.8961C18.5794 11.289 19.7348 9.96011 20.3858 9.40229C21.3459 8.59837 22.5664 8.31946 23.3313 8.31946C25.1214 8.31946 26.6186 9.12338 27.1881 10.7148C27.7252 12.1914 27.3346 14.0782 26.0002 14.9477C24.9261 15.686 23.0221 15.9813 21.8341 16.1782C20.1417 16.4079 20.1091 17.097 20.044 17.7204C19.9301 18.8033 19.8976 20.9525 19.9627 22.265C20.044 23.2658 21.232 23.6104 22.3712 23.7744C23.5103 23.9713 24.4379 23.9221 25.4306 24.3159C27.123 24.9229 28.0344 27.0065 27.7577 28.7456C27.4811 30.5175 25.8862 31.666 24.1612 31.8957C22.3223 32.1254 20.7275 30.9277 19.5721 29.6316C19.0025 28.9753 17.961 27.7776 17.5542 27.2854C17.245 26.9409 16.7568 27.0886 16.3337 27.3347C15.6827 27.712 11.5981 30.5668 11.0285 30.9933C10.7193 31.3051 10.6542 31.5676 10.882 31.9121C11.6794 33.2574 12.6396 34.7176 13.7787 36.063C14.9667 37.4903 16.5289 38.606 18.2214 39.4263C23.5754 41.9693 30.4103 40.3451 34.0556 35.6856C37.7822 30.9441 37.3917 24.0862 33.0303 19.8861Z" fill="#0F81E9" />
<path d="M81.7366 0C74.446 0 68.4736 5.90636 68.4736 13.1417V27.8583C68.4736 35.11 74.4298 41 81.7366 41C89.0271 41 94.9995 35.0936 94.9995 27.8583V13.1581C94.9833 5.88995 89.0271 0 81.7366 0ZM77.4404 12.7151C77.4404 10.4018 79.3606 8.48219 81.7203 8.48219C84.0962 8.48219 86.0003 10.3689 86.0003 12.7151V28.6623C86.0003 30.9756 84.08 32.8952 81.7203 32.8952C79.3932 32.8952 77.4404 31.0084 77.4404 28.6623V12.7151Z" fill="#0F81E9" />
<path d="M53.0627 13.9627C50.8495 13.9627 49.0757 14.6353 47.8714 15.4064C47.9853 14.4385 48.6688 9.12274 48.799 8.12193C48.6526 8.12193 59.8976 8.12193 61.5412 8.12193C61.9643 8.12193 62.3061 7.84302 62.3386 7.46567C62.42 6.23518 62.3386 2.49448 62.3386 0.952262C62.3386 0.443659 62.1433 0.213967 61.5412 0.213967C57.424 0.213967 47.4483 0.164749 43.3148 0.164749C42.3221 0.164749 42.2082 0.853822 42.0943 1.59212C41.72 4.08592 39.3929 21.1159 39.3278 21.6081C39.279 22.1167 39.3766 22.2972 39.8648 22.6089C41.1667 23.216 43.8193 24.2004 44.4214 24.4793C45.1049 24.791 45.4955 25.0863 46.1464 24.3644C47.8714 22.4777 49.2384 21.4113 51.3702 21.4113C54.9341 21.4113 57.0334 23.5113 57.0172 26.809C57.0009 30.1067 54.5599 32.0263 51.5818 32.0263C49.1896 32.0263 48.0993 31.37 46.5207 30.1724C45.7884 29.6309 44.8283 28.8927 44.2262 28.3184C43.6566 27.8098 43.266 28.0067 42.4686 28.8598C41.362 30.0083 39.7184 31.9771 38.6443 33.0599C38.1073 33.6013 38.0747 33.9787 38.5955 34.5693C39.816 35.9147 41.0691 36.9975 42.7127 38.1624C45.3002 39.9671 48.7177 40.8366 52.0049 40.771C59.0188 40.771 65.7398 35.5537 65.7398 27.3012C65.7398 20.0003 61.2646 13.9627 53.0627 13.9627Z" fill="#0F81E9" />
<path d="M14.2353 22.0352C14.2353 20.657 14.2353 17.6875 14.2353 17.3757C14.2353 16.7687 13.9261 16.2929 13.4704 16.2929C13.1612 16.2929 8.76738 16.2929 8.76738 16.2929V10.9772C8.76738 10.5506 8.45818 10.1404 8.03507 10.0092C7.61196 9.89433 7.12375 10.0584 6.8471 10.3865L0.207488 19.0984C-0.0691626 19.443 -0.0691626 19.9023 0.207488 20.2469L6.8471 28.9916C7.04238 29.2705 7.38413 29.4181 7.67705 29.4181C7.79097 29.4181 7.90488 29.4181 7.98625 29.3689C8.40936 29.2541 8.71856 28.8275 8.71856 28.4009V23.2001C8.71856 23.2001 12.5428 23.2001 13.0311 23.2001C13.9749 23.2329 14.2353 22.6915 14.2353 22.0352Z" fill="#0F81E9" />
</svg>